<svg xmlns="http://www.w3.org/2000/svg" width="93" height="93" viewBox="0 0 93 93" fill="none"> <g filter="url(#filter0_d)"> <circle cx="46.5" cy="46.5" r="26.5" fill="#010921"/> </g> <path fill-rule="evenodd" clip-rule="evenodd" d="M45.5975 45.4382C45.5975 44.7451 45.0271 44.1832 44.3235 44.1832C43.6202 44.1832 43.0498 44.7453 43.0498 45.4382C43.0498 46.1315 43.6202 46.6932 44.3235 46.6932C45.0271 46.6932 45.5975 46.1315 45.5975 45.4382ZM38.0891 58.2393C37.8229 58.2393 37.6074 58.4519 37.6074 58.714C37.6074 58.9762 37.8231 59.1886 38.0891 59.1886C38.3552 59.1886 38.5706 58.9762 38.5706 58.714C38.5706 58.4517 38.355 58.2393 38.0891 58.2393ZM51.7104 59.2945C51.384 59.2945 51.1196 59.5553 51.1196 59.8767C51.1196 60.1983 51.384 60.459 51.7104 60.459C52.0368 60.459 52.3014 60.1981 52.3014 59.8767C52.3014 59.5551 52.0368 59.2945 51.7104 59.2945ZM46.4828 41.7875C45.7943 41.7875 45.2364 42.3374 45.2364 43.0157C45.2364 43.6937 45.7943 44.2438 46.4828 44.2438C47.171 44.2438 47.7291 43.6937 47.7291 43.0157C47.7291 42.3376 47.1712 41.7875 46.4828 41.7875ZM49.6605 45.243C50.3338 45.243 50.8797 44.7051 50.8797 44.0417C50.8797 43.3785 50.3338 42.8406 49.6605 42.8406C48.9874 42.8406 48.4413 43.3783 48.4413 44.0417C48.4413 44.7051 48.9874 45.243 49.6605 45.243ZM51.8093 45.5359C51.1512 45.5359 50.6175 46.0617 50.6175 46.7102C50.6175 47.3586 51.1512 47.8845 51.8093 47.8845C52.4674 47.8845 53.0011 47.3584 53.0011 46.7102C53.0011 46.0617 52.4674 45.5359 51.8093 45.5359ZM51.6749 48.9864C51.0322 48.9864 50.5107 49.5005 50.5107 50.134C50.5107 50.7675 51.0322 51.2812 51.6749 51.2812C52.3179 51.2812 52.8396 50.7675 52.8396 50.134C52.8396 49.5003 52.3179 48.9864 51.6749 48.9864ZM49.7876 51.5875C49.1596 51.5875 48.6505 52.0891 48.6505 52.7081C48.6505 53.3268 49.1598 53.8284 49.7876 53.8284C50.4156 53.8284 50.9249 53.3266 50.9249 52.7081C50.9249 52.0891 50.4158 51.5875 49.7876 51.5875ZM46.4842 52.7053C45.8714 52.7053 45.3745 53.1947 45.3745 53.7987C45.3745 54.4026 45.8712 54.8921 46.4842 54.8921C47.0971 54.8921 47.5939 54.4026 47.5939 53.7987C47.5939 53.1949 47.0973 52.7053 46.4842 52.7053ZM43.2133 52.1371C42.6156 52.1371 42.1308 52.6147 42.1308 53.2038C42.1308 53.7929 42.6156 54.2704 43.2133 54.2704C43.8112 54.2704 44.2959 53.7929 44.2959 53.2038C44.2959 52.6147 43.8112 52.1371 43.2133 52.1371ZM41.5316 51.5756C41.5316 51.0014 41.0591 50.5359 40.4764 50.5359C39.8937 50.5359 39.4212 51.0014 39.4212 51.5756C39.4212 52.1498 39.8937 52.6153 40.4764 52.6153C41.0591 52.6153 41.5316 52.1498 41.5316 51.5756ZM38.4395 48.0426C37.872 48.0426 37.4115 48.4963 37.4115 49.0556C37.4115 49.6148 37.872 50.0685 38.4395 50.0685C39.0071 50.0685 39.4676 49.6148 39.4676 49.0556C39.4676 48.4963 39.0071 48.0426 38.4395 48.0426ZM38.4431 46.0197C38.4431 45.4754 37.9951 45.0337 37.4427 45.0337C36.8903 45.0337 36.4422 45.4754 36.4422 46.0197C36.4422 46.564 36.8901 47.0055 37.4427 47.0055C37.9953 47.0055 38.4431 46.564 38.4431 46.0197ZM37.5754 43.8258C38.1129 43.8258 38.5487 43.3963 38.5489 42.8666C38.5489 42.3371 38.1131 41.9076 37.5754 41.9076C37.038 41.9076 36.6021 42.3371 36.6021 42.8666C36.6021 43.3963 37.038 43.8258 37.5754 43.8258ZM38.804 40.8877C39.3262 40.8877 39.7499 40.4701 39.7499 39.9555C39.7499 39.4409 39.3264 39.0234 38.804 39.0234C38.2815 39.0234 37.858 39.4409 37.858 39.9555C37.858 40.4703 38.2815 40.8877 38.804 40.8877ZM41.1652 36.6001C40.6581 36.6001 40.2468 37.0051 40.2468 37.5052C40.2468 38.0053 40.6581 38.4105 41.1652 38.4105C41.6725 38.4105 42.0839 38.0051 42.0839 37.5052C42.0839 37.0053 41.6725 36.6001 41.1652 36.6001ZM44.3431 36.9477C44.8353 36.9477 45.2345 36.5543 45.2345 36.0696C45.2345 35.5846 44.8353 35.1912 44.3431 35.1912C43.8512 35.1912 43.4519 35.5846 43.4519 36.0696C43.4519 36.5543 43.8512 36.9477 44.3431 36.9477ZM47.6995 36.729C48.1767 36.729 48.5638 36.3475 48.5638 35.8775C48.5638 35.4073 48.1767 35.0261 47.6995 35.0261C47.2225 35.0261 46.8357 35.4073 46.8357 35.8775C46.8357 36.3477 47.2225 36.729 47.6995 36.729ZM50.9455 37.4383C51.4073 37.4383 51.7823 37.0688 51.7823 36.6137C51.7823 36.1587 51.4075 35.7894 50.9455 35.7894C50.4834 35.7894 50.1088 36.1589 50.1088 36.6137C50.1088 37.069 50.4834 37.4383 50.9455 37.4383ZM54.644 38.1156C54.644 37.6754 54.2818 37.3181 53.8347 37.3181C53.3876 37.3181 53.0254 37.6753 53.0254 38.1156C53.0254 38.5561 53.3876 38.913 53.8347 38.913C54.2818 38.913 54.644 38.5561 54.644 38.1156ZM56.968 40.2201C56.968 39.7946 56.6178 39.4495 56.1859 39.4495C55.754 39.4495 55.4037 39.7946 55.4037 40.2201C55.4037 40.6457 55.754 40.9908 56.1859 40.9908C56.618 40.9908 56.968 40.6457 56.968 40.2201ZM57.9668 43.6378C58.3837 43.6378 58.7215 43.3047 58.7213 42.8942C58.7213 42.4834 58.3837 42.1504 57.9668 42.1504C57.55 42.1504 57.212 42.4836 57.212 42.8942C57.212 43.3047 57.55 43.6378 57.9668 43.6378ZM58.2778 45.9426C58.2778 46.3385 58.6035 46.6596 59.0053 46.6596C59.4069 46.6596 59.7329 46.3385 59.7329 45.9426C59.7329 45.5467 59.407 45.2259 59.0053 45.2259C58.6035 45.2259 58.2778 45.5467 58.2778 45.9426ZM59.2133 48.6539C58.8267 48.6539 58.5133 48.9627 58.5133 49.3436C58.5133 49.7246 58.8267 50.0332 59.2133 50.0332C59.5999 50.0332 59.9137 49.7244 59.9136 49.3436C59.9136 48.9627 59.5999 48.6539 59.2133 48.6539ZM58.4986 51.9926C58.1271 51.9926 57.8257 52.2896 57.8257 52.6556C57.8257 53.0217 58.1271 53.3186 58.4986 53.3186C58.8701 53.3186 59.1715 53.0217 59.1715 52.6556C59.1715 52.2896 58.8701 51.9926 58.4986 51.9926ZM56.9676 54.939C56.611 54.939 56.3221 55.2237 56.3221 55.575C56.3221 55.9263 56.611 56.2111 56.9676 56.2111C57.3243 56.2111 57.6133 55.9263 57.6131 55.575C57.6131 55.2237 57.3241 54.939 56.9676 54.939ZM54.6254 57.4774C54.2838 57.4774 54.0071 57.7502 54.0071 58.0867C54.0071 58.4232 54.284 58.696 54.6254 58.696C54.9666 58.696 55.2434 58.4232 55.2434 58.0867C55.2434 57.7502 54.9666 57.4774 54.6254 57.4774ZM48.3798 60.2824C48.0688 60.2824 47.8164 60.5315 47.8164 60.8379C47.8164 61.1444 48.0686 61.3931 48.3798 61.3931C48.6911 61.3931 48.9432 61.1446 48.9432 60.8379C48.9432 60.5313 48.6911 60.2824 48.3798 60.2824ZM44.9698 60.3909C44.6738 60.3909 44.4336 60.6276 44.4336 60.9193C44.4336 61.2111 44.6738 61.4477 44.9698 61.4477C45.2659 61.4477 45.5061 61.2111 45.5061 60.9193C45.5061 60.6276 45.2659 60.3909 44.9698 60.3909ZM41.799 60.16C41.799 60.4368 41.571 60.6614 41.2901 60.6614C41.0092 60.6614 40.7812 60.4368 40.7812 60.16C40.7812 59.8832 41.0092 59.6586 41.2901 59.6586C41.571 59.6586 41.799 59.8832 41.799 60.16Z" fill="#E3068B"/> <path opacity="0.9" fill-rule="evenodd" clip-rule="evenodd" d="M48.6897 46.5483C47.9861 46.5483 47.4158 47.1105 47.4158 47.8033C47.4158 48.4964 47.9861 49.0583 48.6897 49.0583C49.3929 49.0583 49.9634 48.4964 49.9634 47.8033C49.9634 47.1103 49.3929 46.5483 48.6897 46.5483ZM54.9092 34.9859C55.1751 34.9859 55.3907 34.7733 55.3907 34.5113C55.3907 34.249 55.1749 34.0366 54.9092 34.0366C54.6432 34.0366 54.4274 34.249 54.4274 34.5113C54.4274 34.7735 54.6432 34.9859 54.9092 34.9859ZM41.2895 33.9311C41.6157 33.9311 41.8805 33.6704 41.8805 33.3489C41.8805 33.0275 41.6159 32.7666 41.2895 32.7666C40.9633 32.7666 40.6985 33.0273 40.6985 33.3489C40.6985 33.6706 40.9631 33.9311 41.2895 33.9311ZM46.5163 48.9813C45.8279 48.9813 45.2698 49.5316 45.27 50.2094C45.27 50.8877 45.8279 51.4378 46.5163 51.4378C47.2046 51.4378 47.7627 50.8879 47.7627 50.2094C47.7627 49.5316 47.2048 48.9813 46.5163 48.9813ZM43.3391 47.9827C42.6658 47.9827 42.1199 48.5206 42.1199 49.1838C42.1199 49.8473 42.6658 50.3852 43.3391 50.3852C44.0123 50.3852 44.5582 49.8473 44.5582 49.1838C44.5582 48.5206 44.0123 47.9827 43.3391 47.9827ZM42.3803 46.5156C42.3803 45.8671 41.8466 45.3413 41.1885 45.3413C40.5304 45.3413 39.9967 45.8669 39.9967 46.5156C39.9967 47.1641 40.5304 47.6899 41.1885 47.6899C41.8466 47.6899 42.3803 47.1641 42.3803 46.5156ZM41.3241 44.2391C41.9671 44.2391 42.4884 43.7253 42.4884 43.0915C42.4884 42.4578 41.9671 41.9442 41.3241 41.9442C40.6812 41.9442 40.1595 42.4578 40.1595 43.0915C40.1595 43.7253 40.6812 44.2391 41.3241 44.2391ZM43.2118 41.638C43.84 41.638 44.3489 41.1364 44.3489 40.5174C44.3489 39.8987 43.8398 39.397 43.2118 39.397C42.5838 39.397 42.0745 39.8989 42.0745 40.5174C42.0745 41.1364 42.5836 41.638 43.2118 41.638ZM46.5151 40.52C47.1279 40.52 47.6248 40.0306 47.6248 39.4265C47.6248 38.8227 47.1281 38.3331 46.5151 38.3331C45.9021 38.3331 45.4052 38.8227 45.4054 39.4265C45.4054 40.0304 45.9021 40.52 46.5151 40.52ZM49.7865 38.9548C49.1886 38.9548 48.704 39.4324 48.704 40.0215C48.704 40.6105 49.1886 41.0881 49.7865 41.0881C50.3844 41.0881 50.8691 40.6105 50.8691 40.0215C50.8691 39.4324 50.3844 38.9548 49.7865 38.9548ZM51.4682 41.6498C51.4682 42.2239 51.9406 42.6895 52.5234 42.6895C53.1061 42.6895 53.5785 42.2239 53.5785 41.6498C53.5785 41.0756 53.1061 40.6101 52.5234 40.6101C51.9406 40.6101 51.4682 41.0756 51.4682 41.6498ZM54.5588 45.1827C55.1263 45.1827 55.5868 44.729 55.5868 44.1698C55.5868 43.6103 55.1263 43.1568 54.5588 43.1568C53.9912 43.1568 53.531 43.6103 53.531 44.1698C53.531 44.729 53.9912 45.1827 54.5588 45.1827ZM54.5561 47.2056C54.5561 47.7499 55.0039 48.1916 55.5565 48.1916C56.1089 48.1916 56.5572 47.7499 56.5572 47.2056C56.5572 46.6613 56.1089 46.2198 55.5565 46.2198C55.0041 46.2198 54.5561 46.6611 54.5561 47.2056ZM55.4243 49.3996C54.8867 49.3996 54.451 49.8291 54.451 50.3588C54.451 50.8882 54.8867 51.3178 55.4243 51.3178C55.9619 51.3178 56.3976 50.8882 56.3976 50.3588C56.3976 49.8291 55.9619 49.3996 55.4243 49.3996ZM54.1949 52.3377C53.6726 52.3377 53.249 52.7553 53.249 53.2699C53.249 53.7845 53.6726 54.2019 54.1949 54.2019C54.7174 54.2019 55.1408 53.7845 55.1408 53.2699C55.1408 52.7551 54.7174 52.3377 54.1949 52.3377ZM51.8338 54.8149C51.3263 54.8149 50.9151 55.2201 50.9151 55.7202C50.9151 56.2202 51.3265 56.6254 51.8338 56.6254C52.3413 56.6254 52.7526 56.22 52.7526 55.7202C52.7526 55.2201 52.3411 54.8149 51.8338 54.8149ZM48.6552 56.2778C48.1631 56.2778 47.7638 56.671 47.7638 57.1559C47.7638 57.6409 48.1631 58.0343 48.6552 58.0343C49.1474 58.0343 49.5464 57.6409 49.5464 57.1559C49.5464 56.6712 49.1474 56.2778 48.6552 56.2778ZM45.3016 56.4964C44.8244 56.4964 44.4378 56.8776 44.4378 57.348C44.4378 57.818 44.8244 58.1991 45.3016 58.1991C45.7786 58.1991 46.1657 57.8182 46.1657 57.348C46.1657 56.8776 45.7786 56.4964 45.3016 56.4964ZM42.0543 55.7871C41.5922 55.7871 41.2176 56.1566 41.2176 56.6117C41.2176 57.0667 41.5922 57.4361 42.0543 57.4361C42.5163 57.4361 42.891 57.0667 42.891 56.6117C42.891 56.1564 42.5163 55.7871 42.0543 55.7871ZM39.1652 54.3124C38.7181 54.3124 38.3557 54.6693 38.3559 55.1098C38.3559 55.5501 38.7181 55.9072 39.1652 55.9072C39.6123 55.9072 39.9745 55.5501 39.9745 55.1098C39.9745 54.6693 39.6123 54.3124 39.1652 54.3124ZM36.8145 52.2345C36.3828 52.2345 36.0324 52.5796 36.0324 53.0052C36.0324 53.4308 36.3828 53.7758 36.8145 53.7758C37.2464 53.7758 37.5966 53.4308 37.5966 53.0052C37.5966 52.5796 37.2464 52.2345 36.8145 52.2345ZM35.0318 49.587C34.6149 49.587 34.277 49.9202 34.277 50.3305C34.277 50.7413 34.6151 51.0742 35.0318 51.0742C35.4484 51.0742 35.7864 50.7413 35.7864 50.3305C35.7864 49.9202 35.4484 49.587 35.0318 49.587ZM34.7212 47.2828C34.7212 46.8869 34.3952 46.5659 33.9936 46.5659C33.592 46.5659 33.2662 46.8869 33.266 47.2828C33.266 47.6787 33.5918 47.9996 33.9936 47.9996C34.3954 47.9996 34.7212 47.6785 34.7212 47.2828ZM33.7865 44.5715C34.1731 44.5715 34.4865 44.2627 34.4865 43.8817C34.4865 43.5008 34.1731 43.1922 33.7865 43.1922C33.3998 43.1922 33.0864 43.501 33.0864 43.8817C33.0864 44.2627 33.3998 44.5715 33.7865 44.5715ZM34.5007 41.2323C34.8722 41.2323 35.1736 40.9355 35.1736 40.5695C35.1736 40.2035 34.8722 39.9065 34.5007 39.9065C34.1292 39.9065 33.828 40.2035 33.8278 40.5695C33.8278 40.9354 34.1292 41.2323 34.5007 41.2323ZM36.6764 37.6503C36.6764 37.299 36.3874 37.0143 36.0309 37.0143C35.6744 37.0143 35.3854 37.299 35.3854 37.6503C35.3854 38.0016 35.6744 38.2863 36.0309 38.2863C36.3874 38.2863 36.6764 38.0016 36.6764 37.6503ZM38.9937 35.1386C38.9937 34.802 38.7171 34.5293 38.3757 34.5293C38.0344 34.5293 37.7574 34.802 37.7574 35.1386C37.7574 35.4751 38.0344 35.7478 38.3757 35.7478C38.7171 35.7478 38.9937 35.4751 38.9937 35.1386ZM44.6192 32.943C44.9303 32.943 45.1826 32.6941 45.1826 32.3874C45.1826 32.081 44.9305 31.8323 44.6192 31.8323C44.308 31.8323 44.0558 32.0808 44.0558 32.3874C44.0558 32.6941 44.308 32.943 44.6192 32.943ZM48.0297 32.8346C48.3258 32.8346 48.5662 32.598 48.5662 32.3062C48.5662 32.0145 48.3258 31.7778 48.0297 31.7778C47.7336 31.7778 47.4934 32.0145 47.4934 32.3062C47.4934 32.598 47.7336 32.8346 48.0297 32.8346ZM51.2007 33.0651C51.2007 32.7883 51.4287 32.5637 51.7096 32.5637C51.9907 32.5637 52.2185 32.7883 52.2185 33.0651C52.2185 33.3419 51.9907 33.5665 51.7096 33.5665C51.4287 33.5665 51.2007 33.3419 51.2007 33.0651Z" fill="#4BBDE7"/> <defs> <filter id="filter0_d" x="0" y="0" width="93" height="93" filterUnits="userSpaceOnUse" color-interpolation-filters="sRGB"> <feFlood flood-opacity="0" result="BackgroundImageFix"/> <feColorMatrix in="SourceAlpha" type="matrix" values="0 0 0 0 0 0 0 0 0 0 0 0 0 0 0 0 0 0 127 0"/> <feOffset/> <feGaussianBlur stdDeviation="10"/> <feColorMatrix type="matrix" values="0 0 0 0 0.294118 0 0 0 0 0.741176 0 0 0 0 0.905882 0 0 0 1 0"/> <feBlend mode="normal" in2="BackgroundImageFix" result="effect1_dropShadow"/> <feBlend mode="normal" in="SourceGraphic" in2="effect1_dropShadow" result="shape"/> </filter> </defs> </svg>