<svg xmlns="http://www.w3.org/2000/svg" width="369" height="86" viewBox="0 0 369 86" fill="none"> <path d="M361.51 6.86997C351.97 -2.41003 336.72 -2.20003 327.44 7.33997C318.16 16.88 318.37 32.13 327.91 41.41C337.45 50.69 352.7 50.48 361.98 40.94C371.25 31.41 371.04 16.15 361.51 6.86997ZM335.6 33.5C330.43 28.47 330.32 20.21 335.35 15.04C340.38 9.86997 348.64 9.75997 353.81 14.79C358.98 19.82 359.09 28.08 354.06 33.25C349.03 38.41 340.77 38.53 335.6 33.5Z" fill="#E84250"/> <path d="M338.53 35.11C337.58 34.58 336.71 33.92 335.93 33.16C335.15 32.4 334.47 31.54 333.91 30.61C333.84 30.49 333.71 30.4 333.56 30.39C333.41 30.38 333.27 30.42 333.17 30.53L325.33 38.58C325.17 38.75 325.15 39.01 325.3 39.19C326.01 40.11 326.78 40.96 327.57 41.74C328.37 42.51 329.24 43.26 330.18 43.94C330.26 44 330.36 44.03 330.45 44.03C330.57 44.03 330.7 43.98 330.79 43.89L338.63 35.84C338.73 35.74 338.78 35.59 338.76 35.45C338.74 35.31 338.65 35.18 338.53 35.11Z" fill="#EAE8E9"/> <path d="M355.5 17.67C355.57 17.79 355.7 17.88 355.85 17.89C355.87 17.89 355.88 17.89 355.9 17.89C356.03 17.89 356.15 17.84 356.24 17.75L364.08 9.69998C364.24 9.52998 364.26 9.26998 364.11 9.08998C363.4 8.17998 362.63 7.31998 361.84 6.53998C361.04 5.76998 360.17 5.01998 359.23 4.33998C359.04 4.19998 358.78 4.21999 358.62 4.38999L350.78 12.44C350.68 12.54 350.63 12.69 350.65 12.83C350.67 12.97 350.76 13.1 350.88 13.17C351.83 13.7 352.7 14.36 353.48 15.12C354.26 15.88 354.94 16.74 355.5 17.67Z" fill="#EAE8E9"/> <path d="M364.46 38.05L356.41 30.21C356.31 30.11 356.16 30.06 356.02 30.08C355.88 30.1 355.75 30.19 355.68 30.31C355.15 31.26 354.49 32.13 353.73 32.91C352.97 33.69 352.11 34.37 351.18 34.93C351.06 35 350.97 35.13 350.96 35.28C350.94 35.42 350.99 35.57 351.1 35.67L359.15 43.51C359.24 43.6 359.35 43.64 359.47 43.64C359.57 43.64 359.68 43.61 359.76 43.54C360.68 42.83 361.53 42.06 362.31 41.27C363.08 40.47 363.83 39.6 364.51 38.66C364.65 38.47 364.63 38.21 364.46 38.05Z" fill="#EAE8E9"/> <path d="M333.32 18.2C333.34 18.2 333.37 18.2 333.39 18.2C333.53 18.18 333.66 18.09 333.73 17.97C334.26 17.02 334.92 16.15 335.68 15.37C336.44 14.59 337.3 13.91 338.23 13.35C338.35 13.28 338.44 13.15 338.45 13C338.46 12.85 338.42 12.71 338.31 12.61L330.26 4.77C330.09 4.61 329.83 4.59001 329.65 4.74001C328.73 5.45001 327.88 6.21999 327.1 7.00999C326.32 7.80999 325.58 8.68999 324.9 9.61999C324.76 9.80999 324.78 10.07 324.95 10.23L333 18.07C333.09 18.15 333.2 18.2 333.32 18.2Z" fill="#EAE8E9"/> <path d="M242.98 78.8499L249.04 71.2699C251.62 73.9399 254.27 75.4999 256.62 75.4999C258.81 75.4999 260.54 73.9099 260.54 71.6599C260.54 64.5299 244.58 63.1299 244.58 49.4399C244.58 41.6099 251.14 36.5599 258.31 36.5599C262.7 36.5599 266.39 38.7499 268.45 40.9999L262.39 48.1699C261.45 46.9699 260.36 46.0599 258.68 46.0599C256.49 46.0599 254.84 47.7099 254.84 49.8799C254.84 56.9599 271.13 58.5099 271.13 71.8199C271.13 80.0099 264.9 85.8799 257.15 85.8799C251 85.8799 247.37 83.0999 242.98 78.8499Z" fill="#E84250"/> <path d="M48.3899 78.8499L54.4499 71.2699C57.0299 73.9399 59.6799 75.4999 62.0299 75.4999C64.2199 75.4999 65.9499 73.9099 65.9499 71.6599C65.9499 64.5299 49.9899 63.1299 49.9899 49.4399C49.9899 41.6099 56.5498 36.5599 63.7198 36.5599C68.1098 36.5599 71.7999 38.7499 73.8599 40.9999L67.7999 48.1699C66.8599 46.9699 65.7699 46.0599 64.0899 46.0599C61.8999 46.0599 60.2499 47.7099 60.2499 49.8799C60.2499 56.9599 76.5399 58.5099 76.5399 71.8199C76.5399 80.0099 70.3099 85.8799 62.5599 85.8799C56.3999 85.8799 52.7799 83.0999 48.3899 78.8499Z" fill="#E84250"/> <path d="M33.3499 37.34V61.85C33.3499 67.35 32.25 75.85 22.03 75.85C11.81 75.85 10.71 67.35 10.71 61.85V37.34H0.709961V63.33C0.709961 76.8 9.27997 85.85 22.03 85.85C34.78 85.85 43.3499 76.8 43.3499 63.33V37.34H33.3499Z" fill="#E84250"/> <path d="M237.05 55.15C234.66 43.82 225.48 36.5 213.65 36.5C200.35 36.5 189.52 47.56 189.52 61.15C189.52 74.74 200.34 85.8 213.65 85.8C225.71 85.8 231.15 79.32 235.65 73.2L227.64 68.15C225.16 71.83 221.21 76.23 213.65 76.23C205.53 76.23 200.26 70.13 199.6 62.74H237.08C237.45 60.25 237.41 56.87 237.05 55.15ZM213.65 46C220.18 46 224.14 48.96 226.16 53.66H201.29C203.57 49.16 207.95 46 213.65 46Z" fill="#E84250"/> <path d="M128.38 55.15C125.99 43.82 116.81 36.5 104.98 36.5C91.6799 36.5 80.8499 47.56 80.8499 61.15C80.8499 74.74 91.6699 85.8 104.98 85.8C117.04 85.8 122.48 79.32 126.98 73.2L118.97 68.15C116.49 71.83 112.54 76.23 104.98 76.23C96.8599 76.23 91.5899 70.13 90.9299 62.74H128.41C128.79 60.25 128.74 56.87 128.38 55.15ZM104.98 46C111.51 46 115.47 48.96 117.49 53.66H92.6199C94.9099 49.16 99.2799 46 104.98 46Z" fill="#E84250"/> <path d="M173.07 3.64V42.52C169.42 38.59 164.43 36.49 158.08 36.49C144.78 36.49 135.02 47.55 135.02 61.14C135.02 74.73 144.78 85.79 158.08 85.79C164.2 85.79 169.27 82.79 173.07 79.13V85.18H183.07V3.63H173.07V3.64ZM159.08 75.79C151.29 75.79 145.02 70.19 145.02 61.14C145.02 52.27 151.05 46.49 158.83 46.49C165.94 46.49 171.32 50.18 173.07 56.55V66.14C170.54 71.59 166.08 75.79 159.08 75.79Z" fill="#E84250"/> <path d="M288.2 3.63995H278.2V85.19H288.2V3.63995Z" fill="#E84250"/> <path d="M300.19 59.59L318.72 37.34H306.19L287.67 59.55L306.91 85.19H319.39L300.19 59.59Z" fill="#E84250"/></svg>